<?xml version="1.0"?>
<svg xmlns="http://www.w3.org/2000/svg" height="512px" viewBox="0 -31 480 479" width="512px"><path d="m472 32.5h-24v-24c0-4.417969-3.582031-8-8-8h-168c-12.640625.035156-24.511719 6.0625-32 16.246094-7.488281-10.183594-19.359375-16.210938-32-16.246094h-168c-4.417969 0-8 3.582031-8 8v24h-24c-4.417969 0-8 3.582031-8 8v320c0 4.417969 3.582031 8 8 8h312v40c0 3.234375 1.949219 6.152344 4.9375 7.390625s6.429688.550781 8.71875-1.734375l18.34375-18.34375 18.34375 18.34375c1.5 1.5 3.535156 2.34375 5.65625 2.34375 1.050781.003906 2.09375-.203125 3.0625-.609375 2.988281-1.238281 4.9375-4.15625 4.9375-7.390625v-40h88c4.417969 0 8-3.582031 8-8v-320c0-4.417969-3.582031-8-8-8zm-200-16h160v272h-160c-8.683594.03125-17.117188 2.914062-24 8.207031v-256.207031c0-13.253906 10.746094-24 24-24zm-224 0h160c13.253906 0 24 10.746094 24 24v256.207031c-6.882812-5.292969-15.316406-8.175781-24-8.207031h-160zm-32 32h16v304h-16zm32 256h160c10.132812.042969 19.148438 6.445312 22.527344 16h-150.527344v16h152v16h-184zm200 48v-16h72v16zm120 36.6875-10.34375-10.34375c-3.125-3.121094-8.1875-3.121094-11.3125 0l-10.34375 10.34375v-52.6875h32zm16-52.6875h16v-16h-150.527344c3.378906-9.554688 12.394532-15.957031 22.527344-16h160v48h-48zm80 16h-16v-304h16zm0 0" fill="#fec461"/><path d="m80 72.5h112v16h-112zm0 0" fill="#fec461"/><path d="m80 120.5h112v16h-112zm0 0" fill="#fec461"/><path d="m80 168.5h112v16h-112zm0 0" fill="#fec461"/><path d="m80 216.5h112v16h-112zm0 0" fill="#fec461"/><path d="m288 72.5h112v16h-112zm0 0" fill="#fec461"/><path d="m288 120.5h112v16h-112zm0 0" fill="#fec461"/><path d="m288 168.5h112v16h-112zm0 0" fill="#fec461"/><path d="m288 216.5h112v16h-112zm0 0" fill="#fec461"/></svg>
